<svg version="1.1" id="Layer_1"
	xmlns="http://www.w3.org/2000/svg"
	xmlns:xlink="http://www.w3.org/1999/xlink" x="0px" y="0px" width="100%" viewBox="0 0 512 512" enable-background="new 0 0 512 512" xml:space="preserve">
	<path fill="#ffffff" opacity="1.000000" stroke="none" d="
M153.468658,513.000000 
	C149.795288,510.435852 146.198792,508.227844 143.472641,505.228729 
	C138.735519,500.017212 136.681686,493.539246 136.664978,486.481903 
	C136.639343,475.652344 136.478699,464.818451 136.726028,453.994415 
	C136.892059,446.728363 136.150818,440.165131 131.707138,433.792297 
	C122.588181,420.714539 118.341599,405.373779 113.222946,390.460938 
	C97.666740,345.139008 81.848442,299.906891 66.344131,254.567307 
	C58.940598,232.916992 50.455177,211.604095 44.412991,189.527267 
	C39.002686,169.759232 50.661804,150.366852 69.767174,146.143250 
	C73.583344,145.299622 77.645294,145.567764 81.851105,145.307343 
	C82.001038,141.295654 79.916451,138.154572 78.910782,134.766861 
	C73.906380,117.908943 66.726868,101.755135 62.368675,84.694962 
	C56.952530,63.493443 70.742531,43.807705 91.942848,41.554169 
	C109.254929,39.713943 124.263588,48.724846 130.436188,67.347641 
	C140.821030,98.678741 151.635712,129.867706 162.330536,161.095596 
	C168.188019,178.198868 174.171951,195.258850 180.095901,212.339371 
	C183.251038,221.436569 189.357712,226.230072 197.049652,225.637665 
	C204.571091,225.058411 210.553833,218.990631 212.524734,210.270233 
	C217.165512,189.736847 221.871994,169.218124 226.615875,148.708267 
	C235.879211,108.658752 245.196487,68.621719 254.469681,28.574480 
	C257.660156,14.796118 265.927856,5.696880 279.686157,1.151699 
	C285.688049,1.000000 291.376068,1.000000 297.532043,1.000000 
	C312.356964,6.057158 321.634796,15.403559 323.378815,31.091927 
	C323.631287,33.363117 324.809052,33.576275 326.861267,33.228203 
	C337.123383,31.487680 346.677155,33.237072 355.113495,39.615585 
	C363.388947,45.872456 367.948395,54.008850 368.399902,64.593796 
	C369.007721,78.844345 364.077850,92.047516 361.000854,105.552544 
	C350.774506,150.435822 339.977905,195.188873 329.613892,240.041275 
	C327.194214,250.512970 324.744537,261.048035 325.306549,271.981689 
	C325.541412,276.551056 326.672607,280.833435 328.522644,284.931213 
	C330.323029,288.918884 332.808868,289.094482 336.298462,286.453888 
	C344.346710,280.363647 350.689514,272.733215 356.531708,264.669189 
	C366.573669,250.808334 376.965729,237.210129 389.462433,225.483002 
	C400.228668,215.379791 411.408752,205.721725 425.040710,199.368164 
	C440.231506,192.288055 460.307373,198.458572 468.431793,213.032333 
	C473.960663,222.950104 472.123474,236.930481 463.159546,245.681534 
	C439.833160,268.453888 425.828735,297.008270 411.895844,325.787323 
	C397.875244,354.747589 384.836487,384.312378 364.615784,409.835144 
	C358.292603,417.816315 351.111908,424.936401 343.961121,432.116333 
	C335.702271,440.408813 329.283417,449.765320 327.825104,461.706421 
	C327.001740,468.448486 325.886200,475.196930 326.345886,482.041473 
	C327.272186,495.834351 322.183685,506.288269 309.233002,512.760559 
	C257.312439,513.000000 205.624878,513.000000 153.468658,513.000000 
L282.539764,128.177155 
	C289.713593,99.015915 296.892639,69.855957 304.057861,40.692596 
	C306.079407,32.464787 303.176788,25.052927 296.516907,21.316698 
	C286.458679,15.673970 275.326935,21.966263 272.432037,34.629246 
	C263.575897,73.368073 254.560089,112.070358 245.650269,150.796951 
	C240.786667,171.936676 235.898010,193.071732 231.233124,214.255707 
	C227.559357,230.938919 214.831375,243.467590 200.217133,244.323578 
	C182.083420,245.385712 168.286499,236.851532 162.715225,220.883545 
	C155.831009,201.152466 149.080734,181.374512 142.314560,161.602448 
	C132.109314,131.780777 121.935532,101.948357 111.762794,72.115578 
	C110.614189,68.747139 108.963219,65.699196 106.071159,63.548107 
	C100.107811,59.112640 91.495323,59.207085 85.608040,63.663067 
	C80.567993,67.477791 78.852051,76.221436 81.532928,83.890068 
	C91.551422,112.548004 101.581352,141.202072 111.522125,169.886993 
	C119.998299,194.345688 128.419067,218.824051 136.723068,243.341583 
	C138.630981,248.974686 141.118240,254.480713 141.657700,260.511536 
	C142.144852,265.957703 138.290466,270.226532 132.879272,270.338806 
	C127.523056,270.449921 125.101456,268.479065 122.624252,261.338867 
	C116.915581,244.884338 111.330170,228.387039 105.705788,211.903320 
	C101.636375,199.976852 97.655670,188.019516 93.495522,176.124863 
	C91.377762,170.069778 87.172325,165.843491 80.830971,164.527252 
	C74.549820,163.223526 69.397789,165.679916 65.506737,170.718140 
	C61.301891,176.162674 61.555702,182.130890 63.662083,188.234528 
	C76.545204,225.565857 89.481743,262.878754 102.340248,300.218536 
	C113.738144,333.316864 124.978798,366.469604 136.464874,399.537140 
	C139.513458,408.313812 143.152618,416.866150 148.629974,424.536102 
	C153.379379,431.186737 155.746552,438.524933 155.459381,446.942841 
	C155.033508,459.426300 155.303986,471.935394 155.368942,484.433075 
	C155.407822,491.915100 158.211838,494.640106 165.686539,494.642120 
	C209.512955,494.653870 253.339386,494.655640 297.165802,494.645569 
	C304.889465,494.643799 307.480499,491.948212 307.658447,484.023560 
	C307.811188,477.222626 307.609802,470.451447 308.505066,463.625122 
	C310.107361,451.407349 313.131073,439.834259 320.595551,429.831085 
	C324.870941,424.101654 329.630768,418.758789 334.882172,413.879211 
	C342.082886,407.188293 348.370026,399.706604 354.144501,391.767334 
	C369.382751,370.816406 380.351166,347.499176 391.369965,324.239258 
	C401.613800,302.615173 412.119751,281.170074 425.374298,261.170441 
	C432.638611,250.209335 441.773804,240.813156 450.080719,230.722565 
	C453.609314,226.436325 453.631897,223.460464 449.539490,219.871857 
	C445.456116,216.291199 440.707703,214.130157 434.859467,215.973694 
	C431.117188,217.153381 427.922668,219.212723 424.783356,221.316208 
	C404.479614,234.920792 388.571930,252.859619 374.608154,272.679108 
	C362.293274,290.158173 347.554993,304.877136 327.890503,314.093414 
	C320.791962,317.420319 313.127625,319.109711 305.912079,322.045746 
	C294.468811,326.702026 286.756165,334.582672 284.058990,347.084045 
	C283.441772,349.944946 284.206970,353.096008 282.263489,355.724335 
	C279.520447,359.433960 275.111511,360.962830 270.903229,359.461243 
	C266.362762,357.841156 263.966400,353.540649 264.741058,347.758972 
	C267.539185,326.875244 278.904327,312.571625 298.315704,304.617249 
	C303.326996,302.563751 308.459167,300.805206 313.770111,298.823730 
	C312.251923,295.376801 310.727661,292.446442 309.642334,289.361603 
	C304.484650,274.702209 305.901215,259.732483 309.098236,245.129959 
	C316.436981,211.610077 324.578888,178.266220 332.370972,144.845352 
	C338.017670,120.626030 343.696564,96.413826 349.220978,72.166534 
	C351.833252,60.700939 343.124054,50.174751 332.312775,51.411846 
	C325.079193,52.239559 319.688782,57.536217 317.501526,66.287766 
	C309.064117,100.047157 300.749451,133.837326 292.268280,167.585678 
	C286.090088,192.170288 279.820251,216.733032 273.372131,241.247894 
	C271.699707,247.606247 266.600677,250.581985 261.459991,249.067459 
	C256.490356,247.603317 253.816666,242.099945 255.320419,236.122543 
	C264.306458,200.403397 273.326080,164.692703 282.539764,128.177155 
z"/>
	<path fill="#ffffff" opacity="1.000000" stroke="none" d="
M208.999878,462.381470 
	C199.191833,462.382721 189.883682,462.410278 180.575806,462.373962 
	C175.429047,462.353882 171.680267,459.187012 170.893036,454.329681 
	C170.229889,450.237915 172.997177,446.133331 177.535248,444.561829 
	C178.622116,444.185455 179.764496,443.722321 180.882446,443.719452 
	C200.495438,443.669128 220.111618,443.483704 239.720230,443.781372 
	C247.839447,443.904633 251.811127,451.541840 247.790253,458.235596 
	C246.017502,461.186829 243.411972,462.439606 239.916809,462.403809 
	C229.778809,462.299896 219.638992,462.375763 208.999878,462.381470 
z"/>
	<path fill="#ffffff" opacity="1.000000" stroke="none" d="
M264.902863,451.397217 
	C268.685944,443.536499 282.755707,440.566925 289.037384,446.244293 
	C291.628571,448.586182 292.880096,451.952271 291.565887,455.709320 
	C290.273254,459.404785 288.201813,462.173767 283.918793,462.332123 
	C281.266876,462.430206 278.608978,462.377655 275.953766,462.374756 
	C268.194458,462.366333 265.505310,459.811249 264.902863,451.397217 
z"/>
</svg>
